<svg width="172" height="65" viewBox="0 0 172 65" xmlns="http://www.w3.org/2000/svg" xmlns:xlink="http://www.w3.org/1999/xlink">
    <defs>
        <path id="a" d="M0 0h173.23v29.188H0V0z"/>
    </defs>
    <g style="clip-path:url(#a)"><polygon points="17.93 27.64 10.41 25.71 10.41 27.84 14.88 27.84 14.88 39.53 18.1 39.53 18.1 27.84 22.57 27.84 22.57 24.86 16.65 24.86 17.93 27.64" style="fill:#204652"/><polygon points="0.85 14.12 9.8 16.21 13.66 24.57 4.79 22.3 0.85 14.12" style="fill:#80c2d1"/><g style="clip-path:url(#a)"><path d="M25,24.87h6.7A5.83,5.83,0,0,1,36,26.36a4.62,4.62,0,0,1,1.25,3.35v0a4.54,4.54,0,0,1-3.14,4.54l3.58,5.24H33.92l-3.14-4.69H28.25v4.69H25ZM31.52,32c1.57,0,2.47-.84,2.47-2.07v-.05c0-1.38-1-2.09-2.54-2.09h-3.2V32Z" style="fill:#204652"/><path d="M45.19,24.77h3l6.28,14.76H51.07l-1.34-3.29h-6.2l-1.34,3.29H38.91Zm3.39,8.62-1.95-4.75-1.94,4.75Z" style="fill:#204652"/><polygon points="56.7 24.87 59.68 24.87 66.54 33.89 66.54 24.87 69.72 24.87 69.72 39.52 66.98 39.52 59.89 30.21 59.89 39.52 56.7 39.52 56.7 24.87" style="fill:#204652"/><path d="M72.24,37.39l1.9-2.28a6.74,6.74,0,0,0,4.38,1.78c1.32,0,2.11-.53,2.11-1.38v0c0-.81-.5-1.23-2.95-1.86-3-.75-4.85-1.57-4.85-4.48v0c0-2.66,2.13-4.42,5.12-4.42a8.52,8.52,0,0,1,5.45,1.86L81.72,29a6.84,6.84,0,0,0-3.81-1.44c-1.23,0-1.88.56-1.88,1.28v0c0,1,.63,1.27,3.16,1.92,3,.78,4.65,1.85,4.65,4.4v0c0,2.91-2.22,4.54-5.38,4.54a9.33,9.33,0,0,1-6.22-2.34" style="fill:#204652"/><path d="M86,32.24v0a7.45,7.45,0,0,1,7.65-7.58,7.54,7.54,0,0,1,5.77,2.26l-2,2.37a5.39,5.39,0,0,0-3.74-1.66,4.35,4.35,0,0,0-4.26,4.57v0a4.35,4.35,0,0,0,4.26,4.6,5.31,5.31,0,0,0,3.85-1.71l2,2.07a7.5,7.5,0,0,1-6,2.62A7.4,7.4,0,0,1,86,32.24" style="fill:#204652"/><path d="M107.12,24.77h3l6.28,14.76H113l-1.34-3.29h-6.19l-1.34,3.29h-3.29Zm3.39,8.62-2-4.75-1.94,4.75Z" style="fill:#204652"/><path d="M117.88,33.24V24.87h3.23v8.29c0,2.39,1.19,3.62,3.16,3.62s3.16-1.19,3.16-3.51v-8.4h3.22v8.27c0,4.44-2.49,6.62-6.42,6.62s-6.35-2.2-6.35-6.52" style="fill:#204652"/><path d="M132.94,37.39l1.9-2.28a6.72,6.72,0,0,0,4.38,1.78c1.32,0,2.11-.53,2.11-1.38v0c0-.81-.5-1.23-3-1.86-2.95-.75-4.86-1.57-4.86-4.48v0c0-2.66,2.14-4.42,5.13-4.42a8.47,8.47,0,0,1,5.44,1.86L142.42,29a6.89,6.89,0,0,0-3.81-1.44c-1.24,0-1.88.56-1.88,1.28v0c0,1,.62,1.27,3.16,1.92,3,.78,4.64,1.85,4.64,4.4v0c0,2.91-2.22,4.54-5.38,4.54a9.28,9.28,0,0,1-6.21-2.34" style="fill:#204652"/><path d="M146.13,37.39l1.9-2.28a6.72,6.72,0,0,0,4.38,1.78c1.32,0,2.11-.53,2.11-1.38v0c0-.81-.5-1.23-3-1.86-2.95-.75-4.86-1.57-4.86-4.48v0c0-2.66,2.14-4.42,5.13-4.42a8.47,8.47,0,0,1,5.44,1.86L155.61,29a6.89,6.89,0,0,0-3.81-1.44c-1.24,0-1.88.56-1.88,1.28v0c0,1,.62,1.27,3.16,1.92,3,.78,4.64,1.85,4.64,4.4v0c0,2.91-2.22,4.54-5.38,4.54a9.28,9.28,0,0,1-6.21-2.34" style="fill:#204652"/><polygon points="160.53 24.87 171.59 24.87 171.59 27.74 163.73 27.74 163.73 30.71 170.64 30.71 170.64 33.58 163.73 33.58 163.73 36.66 171.69 36.66 171.69 39.52 160.53 39.52 160.53 24.87" style="fill:#204652"/><polygon points="48.02 47.79 48.6 47.79 49.98 51.78 51.29 47.77 51.74 47.77 53.05 51.78 54.42 47.79 54.99 47.79 53.28 52.62 52.82 52.62 51.5 48.73 50.18 52.62 49.73 52.62 48.02 47.79" style="fill:#204652"/><path d="M55.51,50.2h0A2.43,2.43,0,0,1,58,47.71a2.4,2.4,0,0,1,2.44,2.46v0A2.44,2.44,0,0,1,58,52.67a2.41,2.41,0,0,1-2.44-2.47m4.33,0h0a1.9,1.9,0,0,0-1.89-2,1.88,1.88,0,0,0-1.87,2v0a1.88,1.88,0,1,0,3.76,0" style="fill:#204652"/><path d="M61.55,47.79h2.06a1.91,1.91,0,0,1,1.37.48,1.33,1.33,0,0,1,.37.94v0a1.41,1.41,0,0,1-1.3,1.4l1.47,2h-.67l-1.39-1.87H62.09v1.87h-.54Zm2,2.45c.72,0,1.23-.37,1.23-1h0c0-.59-.45-1-1.23-1H62.09v2Z" style="fill:#204652"/><polygon points="66.51 47.79 67.05 47.79 67.05 52.09 69.75 52.09 69.75 52.59 66.51 52.59 66.51 47.79" style="fill:#204652"/><path d="M70.75,47.79h1.66A2.39,2.39,0,0,1,75,50.17v0a2.4,2.4,0,0,1-2.55,2.4H70.75Zm1.66,4.3a1.86,1.86,0,0,0,2-1.89h0a1.87,1.87,0,0,0-2-1.9H71.29v3.8Z" style="fill:#204652"/><polygon points="75.49 47.79 76.08 47.79 77.45 51.78 78.77 47.77 79.21 47.77 80.53 51.78 81.9 47.79 82.47 47.79 80.75 52.62 80.3 52.62 78.98 48.73 77.66 52.62 77.2 52.62 75.49 47.79" style="fill:#204652"/><rect x="83.5" y="47.79" width="0.54" height="4.8" style="fill:#204652"/><path d="M85.44,47.79h1.67a2.39,2.39,0,0,1,2.55,2.38v0a2.4,2.4,0,0,1-2.55,2.4H85.44Zm1.67,4.3a1.86,1.86,0,0,0,2-1.89h0a1.87,1.87,0,0,0-2-1.9H86v3.8Z" style="fill:#204652"/><polygon points="90.8 47.79 94.27 47.79 94.27 48.28 91.34 48.28 91.34 49.92 93.96 49.92 93.96 50.41 91.34 50.41 91.34 52.09 94.3 52.09 94.3 52.59 90.8 52.59 90.8 47.79" style="fill:#204652"/><polygon points="97.45 47.79 97.99 47.79 97.99 52.09 100.69 52.09 100.69 52.59 97.45 52.59 97.45 47.79" style="fill:#204652"/><path d="M101.2,50.2h0a2.43,2.43,0,0,1,2.46-2.48,2.4,2.4,0,0,1,2.44,2.46v0a2.44,2.44,0,0,1-2.46,2.48,2.41,2.41,0,0,1-2.44-2.47m4.33,0h0a1.9,1.9,0,0,0-1.89-2,1.88,1.88,0,0,0-1.87,2v0a1.88,1.88,0,1,0,3.76,0" style="fill:#204652"/><path d="M107,50.2h0a2.41,2.41,0,0,1,2.4-2.48,2.55,2.55,0,0,1,1.79.63l-.35.42a2,2,0,0,0-1.46-.55,1.87,1.87,0,0,0-1.82,2v0a1.85,1.85,0,0,0,1.9,2,2.23,2.23,0,0,0,1.38-.48V50.51h-1.46V50h2v1.91a2.87,2.87,0,0,1-1.92.74A2.35,2.35,0,0,1,107,50.2" style="fill:#204652"/><rect x="112.66" y="47.79" width="0.54" height="4.8" style="fill:#204652"/><path d="M114.29,51.89l.34-.4a2.29,2.29,0,0,0,1.64.68c.65,0,1.07-.35,1.07-.82h0c0-.45-.24-.7-1.24-.91s-1.61-.6-1.61-1.39h0a1.41,1.41,0,0,1,1.57-1.31,2.52,2.52,0,0,1,1.69.59l-.32.42a2.06,2.06,0,0,0-1.38-.52c-.63,0-1,.34-1,.77v0c0,.45.24.7,1.3.93s1.56.62,1.56,1.35v0c0,.82-.68,1.35-1.64,1.35a2.83,2.83,0,0,1-2-.76" style="fill:#204652"/><polygon points="120.16 48.29 118.55 48.29 118.55 47.79 122.32 47.79 122.32 48.29 120.71 48.29 120.71 52.59 120.16 52.59 120.16 48.29" style="fill:#204652"/><rect x="123.38" y="47.79" width="0.54" height="4.8" style="fill:#204652"/><path d="M125.11,50.2h0a2.42,2.42,0,0,1,2.43-2.48,2.47,2.47,0,0,1,1.87.76l-.37.39a2.08,2.08,0,0,0-1.51-.65,1.87,1.87,0,0,0-1.85,2v0a1.89,1.89,0,0,0,1.85,2,2.11,2.11,0,0,0,1.55-.69l.36.34a2.5,2.5,0,0,1-1.92.85,2.4,2.4,0,0,1-2.41-2.47" style="fill:#204652"/><path d="M130.07,51.89l.34-.4a2.29,2.29,0,0,0,1.64.68c.64,0,1.07-.35,1.07-.82h0c0-.45-.24-.7-1.25-.91s-1.61-.6-1.61-1.39h0a1.42,1.42,0,0,1,1.58-1.31,2.48,2.48,0,0,1,1.68.59l-.31.42a2.08,2.08,0,0,0-1.39-.52c-.62,0-1,.34-1,.77v0c0,.45.25.7,1.3.93s1.57.62,1.57,1.35v0c0,.82-.69,1.35-1.64,1.35a2.83,2.83,0,0,1-2-.76" style="fill:#204652"/><rect x="36.42" y="49.57" width="8.12" height="0.33" style="fill:#204652"/><rect x="137.57" y="49.57" width="8.12" height="0.33" style="fill:#204652"/></g></g>
</svg>
